<svg xmlns="http://www.w3.org/2000/svg" width="260" height="260" viewBox="0 0 260 260">
  <g fill="#000">
    <!-- each slash is a long tapered sliver, torn wider in the middle -->
    <path d="M40,20 C58,70 76,120 86,196 C88,212 84,222 78,220 C72,218 66,206 60,182 C48,130 40,74 34,26 C33,18 37,12 40,20 Z"/>
    <path d="M96,8  C118,62 138,118 150,206 C152,224 147,236 140,233 C133,230 127,216 121,188 C108,128 98,66 90,14 C89,5 93,0 96,8 Z"/>
    <path d="M158,30 C178,78 196,126 206,198 C208,213 204,223 198,221 C192,219 186,207 180,183 C168,132 158,80 152,36 C151,28 155,22 158,30 Z"/>
  </g>
</svg>
